<?xml version="1.0" encoding="utf-8"?>
<!-- Generator: Adobe Illustrator 26.5.0, SVG Export Plug-In . SVG Version: 6.00 Build 0)  -->
<svg version="1.1" id="Calque_1" xmlns="http://www.w3.org/2000/svg" xmlns:xlink="http://www.w3.org/1999/xlink" x="0px" y="0px"
	 viewBox="0 0 539.64 566.93" style="enable-background:new 0 0 539.64 566.93;" xml:space="preserve">
<path d="M485.31,58.17c-3.98-4.39-9.67-7.2-16.06-7.2H407.1c-13.28,0-20.32,0.21-26.64,8.3c0.01-0.02-101.19,130.36-103.06,132.79
	c-0.03,0.03-0.06,0.09-0.09,0.12c-1.7,2.23-5.55,8.17-8.45,12.66c-4.52,6.99-8.72,13.75-10.05,15.99c-1.07,1.82-2.67,4.06-3.43,5.37
	c-0.61,1.06-4.1,5.47-8.87,5.65c0,0,0,0-0.01,0c-0.01,0-0.02,0-0.03,0c-0.03,0-0.06-0.01-0.08-0.01c-1.28,0.03-2.63-0.22-4.06-0.95
	c-6.29-3.21-1.88-11.72,0.39-15.54c1.37-2.31,4.91-8.35,8.12-13.99c3.52-6.19,2.74-13.92-1.95-19.27L141.08,59.38
	c-4.46-5.08-9.61-8.41-17.19-8.41H70.72c-18.08,0-28.26,20.79-17.17,35.07l157.21,178.96c3.08,3.5,3.23,8.7,0.38,12.38L53.23,480.74
	c-11.05,13.22-0.82,35.71,17.16,35.21h49.06c6.68-0.03,13.03-3.18,17.17-8.43l249.03-320.85c6.16-7.64,11.88-17.12,17.3-25.48
	c2.55-4.04,4.6-7.35,5.45-8.79c1.07-1.82,2.67-4.06,3.42-5.37c0.5-0.86,2.89-3.94,6.33-5.15c0.85-0.31,1.74-0.43,2.64-0.45
	c1.41-0.03,2.82,0.26,4.08,0.91c1.38,0.7,2.22,1.67,2.7,2.77c0.24,0.54,0.4,1.11,0.47,1.71c0.46,3.78-2.03,8.48-3.56,11.05
	c-1.82,3.07-7.46,12.72-11.08,19.26c-1.32,2.39-2.37,4.36-2.86,5.44c-0.01,0.02-0.03,0.06-0.04,0.08c-0.21,0.47-0.39,0.95-0.54,1.43
	c-1.04,3.23-0.98,6.79-0.98,10.21v84.19c0,2.68-2.18,4.86-4.86,4.86h-24.08c-3.96,0-7.78,1.11-11.1,3.09
	c-2.35,1.4-4.46,3.21-6.16,5.44l-34.44,45.01c-5.13,6.7-5.62,14.8-2.83,21.52c3.16,7.61,10.52,13.44,20.09,13.44h58.52
	c2.68,0,4.86,2.18,4.86,4.86v44.8v72.73c0,0.01,0,0.02,0,0.02c0.01,12,9.74,21.72,21.74,21.72h38.53c12.01,0,21.74-9.73,21.74-21.74
	V72.7C490.98,67.09,488.8,62.02,485.31,58.17z"/>
</svg>
